<?xml version="1.0" encoding="UTF-8"?>
<!DOCTYPE svg PUBLIC "-//W3C//DTD SVG 1.1//EN" "http://www.w3.org/Graphics/SVG/1.1/DTD/svg11.dtd">
<svg xmlns="http://www.w3.org/2000/svg" xmlns:xlink="http://www.w3.org/1999/xlink" version="1.1" width="510px" height="371px" viewBox="-0.5 -0.5 510 371"><defs><style type="text/css">@import url("https://fonts.googleapis.com/css?family=Open+Sans");</style><style type="text/css"/></defs><g><path d="M 50 162 L 110 138" fill="none" stroke="rgb(240, 240, 240)" stroke-width="2" stroke-miterlimit="10" pointer-events="stroke"/><rect x="110" y="110" width="40" height="40" fill="none" stroke="rgb(240, 240, 240)" stroke-width="2" pointer-events="all"/><g fill="rgb(240, 240, 240)" font-family="Open Sans" text-anchor="middle" font-size="18px"><text x="129.5" y="137.5">C</text></g><rect x="110" y="150" width="40" height="40" fill="none" stroke="rgb(240, 240, 240)" stroke-width="2" pointer-events="all"/><g fill="rgb(240, 240, 240)" font-family="Open Sans" text-anchor="middle" font-size="18px"><text x="129.5" y="177.5">P</text></g><rect x="110" y="190" width="40" height="40" fill="none" stroke="rgb(240, 240, 240)" stroke-width="2" pointer-events="all"/><g fill="rgb(240, 240, 240)" font-family="Open Sans" text-anchor="middle" font-size="18px"><text x="129.5" y="217.5">C</text></g><path d="M 50 170 L 110 170" fill="none" stroke="rgb(240, 240, 240)" stroke-width="2" stroke-miterlimit="10" pointer-events="stroke"/><path d="M 50 178 L 110 202" fill="none" stroke="rgb(240, 240, 240)" stroke-width="2" stroke-miterlimit="10" pointer-events="stroke"/><rect x="10" y="150" width="40" height="40" fill="none" stroke="rgb(240, 240, 240)" stroke-width="2" pointer-events="all"/><g fill="rgb(240, 240, 240)" font-family="Open Sans" text-anchor="middle" font-size="18px"><text x="29.5" y="177.5">R</text></g><rect x="9" y="0" width="490" height="40" fill="none" stroke="none" pointer-events="all"/><g fill="rgb(240, 240, 240)" font-family="Open Sans" font-size="24px"><text x="10.5" y="30.5">Move Processing</text></g><rect x="0" y="75" width="60" height="30" fill="none" stroke="none" pointer-events="all"/><g fill="rgb(240, 240, 240)" font-family="Open Sans" text-anchor="middle" font-size="18px"><text x="29.5" y="97.5">Root</text></g><path d="M 150 225.56 L 220 280" fill="none" stroke="rgb(240, 240, 240)" stroke-width="2" stroke-miterlimit="10" pointer-events="stroke"/><rect x="220" y="250" width="40" height="40" fill="none" stroke="rgb(240, 240, 240)" stroke-width="2" pointer-events="all"/><g fill="rgb(240, 240, 240)" font-family="Open Sans" text-anchor="middle" font-size="18px"><text x="239.5" y="277.5">C</text></g><rect x="220" y="290" width="40" height="40" fill="none" stroke="rgb(240, 240, 240)" stroke-width="2" pointer-events="all"/><g fill="rgb(240, 240, 240)" font-family="Open Sans" text-anchor="middle" font-size="18px"><text x="239.5" y="317.5">C</text></g><rect x="220" y="330" width="40" height="40" fill="none" stroke="rgb(240, 240, 240)" stroke-width="2" pointer-events="all"/><g fill="rgb(240, 240, 240)" font-family="Open Sans" text-anchor="middle" font-size="18px"><text x="239.5" y="357.5">C</text></g><path d="M 146.36 230 L 220 320" fill="none" stroke="rgb(240, 240, 240)" stroke-width="2" stroke-miterlimit="10" pointer-events="stroke"/><path d="M 142.86 230 L 220 350" fill="none" stroke="rgb(240, 240, 240)" stroke-width="2" stroke-miterlimit="10" pointer-events="stroke"/><path d="M 150 170 L 220 170" fill="none" stroke="rgb(240, 240, 240)" stroke-width="2" stroke-miterlimit="10" pointer-events="stroke"/><rect x="220" y="150" width="40" height="40" fill="none" stroke="rgb(240, 240, 240)" stroke-width="2" pointer-events="all"/><g fill="rgb(240, 240, 240)" font-family="Open Sans" text-anchor="middle" font-size="18px"><text x="239.5" y="177.5">C</text></g><rect x="220" y="110" width="40" height="40" fill="none" stroke="rgb(240, 240, 240)" stroke-width="2" pointer-events="all"/><g fill="rgb(240, 240, 240)" font-family="Open Sans" text-anchor="middle" font-size="18px"><text x="239.5" y="137.5">P</text></g><rect x="220" y="190" width="40" height="40" fill="none" stroke="rgb(240, 240, 240)" stroke-width="2" pointer-events="all"/><g fill="rgb(240, 240, 240)" font-family="Open Sans" text-anchor="middle" font-size="18px"><text x="239.5" y="217.5">C</text></g><path d="M 150 162.73 L 220 137.27" fill="none" stroke="rgb(240, 240, 240)" stroke-width="2" stroke-miterlimit="10" pointer-events="stroke"/><path d="M 150 177.27 L 220 202.73" fill="none" stroke="rgb(240, 240, 240)" stroke-width="2" stroke-miterlimit="10" pointer-events="stroke"/><path d="M 260 224 L 340 280" fill="none" stroke="rgb(240, 240, 240)" stroke-width="2" stroke-miterlimit="10" pointer-events="stroke"/><path d="M 258.18 230 L 340 320" fill="none" stroke="rgb(240, 240, 240)" stroke-width="2" stroke-miterlimit="10" pointer-events="stroke"/><path d="M 254.29 230 L 340 350" fill="none" stroke="rgb(240, 240, 240)" stroke-width="2" stroke-miterlimit="10" pointer-events="stroke"/><path d="M 260 123.33 L 340 96.67" fill="none" stroke="rgb(240, 240, 240)" stroke-width="2" stroke-miterlimit="10" pointer-events="stroke"/><rect x="340" y="70" width="40" height="40" fill="none" stroke="rgb(240, 240, 240)" stroke-width="2" pointer-events="all"/><g fill="rgb(240, 240, 240)" font-family="Open Sans" text-anchor="middle" font-size="18px"><text x="359.5" y="97.5">C</text></g><rect x="340" y="110" width="40" height="40" fill="none" stroke="rgb(240, 240, 240)" stroke-width="2" pointer-events="all"/><g fill="rgb(240, 240, 240)" font-family="Open Sans" text-anchor="middle" font-size="18px"><text x="359.5" y="137.5">T</text></g><rect x="340" y="150" width="40" height="40" fill="none" stroke="rgb(240, 240, 240)" stroke-width="2" pointer-events="all"/><g fill="rgb(240, 240, 240)" font-family="Open Sans" text-anchor="middle" font-size="18px"><text x="359.5" y="177.5">C</text></g><path d="M 260 130 L 340 130" fill="none" stroke="rgb(240, 240, 240)" stroke-width="2" stroke-miterlimit="10" pointer-events="stroke"/><path d="M 260 136.67 L 340 163.33" fill="none" stroke="rgb(240, 240, 240)" stroke-width="2" stroke-miterlimit="10" pointer-events="stroke"/><rect x="210" y="55" width="60" height="30" fill="none" stroke="none" pointer-events="all"/><g fill="rgb(240, 240, 240)" font-family="Open Sans" text-anchor="middle" font-size="18px"><text x="239.5" y="77.5">Parent</text></g><path d="M 240 85 L 240 101.76" fill="none" stroke="rgb(240, 240, 240)" stroke-width="2" stroke-miterlimit="10" stroke-dasharray="2 2" pointer-events="stroke"/><path d="M 240 107.76 L 237 101.76 L 243 101.76 Z" fill="rgb(240, 240, 240)" stroke="rgb(240, 240, 240)" stroke-width="2" stroke-miterlimit="10" pointer-events="all"/><rect x="340" y="250" width="40" height="40" fill="none" stroke="rgb(240, 240, 240)" stroke-width="2" pointer-events="all"/><g fill="rgb(240, 240, 240)" font-family="Open Sans" text-anchor="middle" font-size="18px"><text x="359.5" y="277.5">C</text></g><rect x="340" y="290" width="40" height="40" fill="none" stroke="rgb(240, 240, 240)" stroke-width="2" pointer-events="all"/><g fill="rgb(240, 240, 240)" font-family="Open Sans" text-anchor="middle" font-size="18px"><text x="359.5" y="317.5">C</text></g><rect x="340" y="330" width="40" height="40" fill="none" stroke="rgb(240, 240, 240)" stroke-width="2" pointer-events="all"/><g fill="rgb(240, 240, 240)" font-family="Open Sans" text-anchor="middle" font-size="18px"><text x="359.5" y="357.5">C</text></g><path d="M 30 105 L 30 141.76" fill="none" stroke="rgb(240, 240, 240)" stroke-width="2" stroke-miterlimit="10" stroke-dasharray="2 2" pointer-events="stroke"/><path d="M 30 147.76 L 27 141.76 L 33 141.76 Z" fill="rgb(240, 240, 240)" stroke="rgb(240, 240, 240)" stroke-width="2" stroke-miterlimit="10" pointer-events="all"/><path d="M 380 123.33 L 460 96.67" fill="none" stroke="rgb(240, 240, 240)" stroke-width="2" stroke-miterlimit="10" pointer-events="stroke"/><rect x="460" y="70" width="40" height="40" fill="none" stroke="rgb(240, 240, 240)" stroke-width="2" pointer-events="all"/><g fill="rgb(240, 240, 240)" font-family="Open Sans" text-anchor="middle" font-size="18px"><text x="479.5" y="97.5">C</text></g><rect x="460" y="110" width="40" height="40" fill="none" stroke="rgb(240, 240, 240)" stroke-width="2" pointer-events="all"/><g fill="rgb(240, 240, 240)" font-family="Open Sans" text-anchor="middle" font-size="18px"><text x="479.5" y="137.5">C</text></g><rect x="460" y="150" width="40" height="40" fill="none" stroke="rgb(240, 240, 240)" stroke-width="2" pointer-events="all"/><g fill="rgb(240, 240, 240)" font-family="Open Sans" text-anchor="middle" font-size="18px"><text x="479.5" y="177.5">C</text></g><path d="M 380 130 L 460 130" fill="none" stroke="rgb(240, 240, 240)" stroke-width="2" stroke-miterlimit="10" pointer-events="stroke"/><path d="M 380 136.67 L 460 163.33" fill="none" stroke="rgb(240, 240, 240)" stroke-width="2" stroke-miterlimit="10" pointer-events="stroke"/><rect x="397" y="65" width="60" height="30" fill="none" stroke="none" pointer-events="all"/><g fill="rgb(240, 240, 240)" font-family="Open Sans" text-anchor="middle" font-size="18px"><text x="426.5" y="87.5">Target</text></g><path d="M 406.9 95 L 386.6 110.15" fill="none" stroke="rgb(240, 240, 240)" stroke-width="2" stroke-miterlimit="10" stroke-dasharray="2 2" pointer-events="stroke"/><path d="M 381.79 113.74 L 384.81 107.74 L 388.39 112.55 Z" fill="rgb(240, 240, 240)" stroke="rgb(240, 240, 240)" stroke-width="2" stroke-miterlimit="10" pointer-events="all"/><rect x="420" y="290" width="90" height="30" fill="none" stroke="none" pointer-events="all"/><g fill="rgb(240, 240, 240)" font-family="Open Sans" text-anchor="middle" font-size="18px"><text x="464.5" y="312.5">Cascade</text></g><path d="M 430 320 L 387.57 338.18" fill="none" stroke="rgb(240, 240, 240)" stroke-width="2" stroke-miterlimit="10" stroke-dasharray="2 2" pointer-events="stroke"/><path d="M 382.06 340.55 L 386.39 335.43 L 388.75 340.94 Z" fill="rgb(240, 240, 240)" stroke="rgb(240, 240, 240)" stroke-width="2" stroke-miterlimit="10" pointer-events="all"/><path d="M 224.66 85 L 155.89 152.24" fill="none" stroke="rgb(240, 240, 240)" stroke-width="2" stroke-miterlimit="10" stroke-dasharray="2 2" pointer-events="stroke"/><path d="M 151.6 156.44 L 153.79 150.1 L 157.99 154.39 Z" fill="rgb(240, 240, 240)" stroke="rgb(240, 240, 240)" stroke-width="2" stroke-miterlimit="10" pointer-events="all"/></g></svg>