<?xml version="1.0" encoding="UTF-8"?>
<!DOCTYPE svg PUBLIC "-//W3C//DTD SVG 1.1//EN" "http://www.w3.org/Graphics/SVG/1.1/DTD/svg11.dtd">
<svg xmlns="http://www.w3.org/2000/svg" xmlns:xlink="http://www.w3.org/1999/xlink" version="1.1" width="501px" height="332px" viewBox="-0.5 -0.5 501 332"><defs/><g><path d="M 51 263 L 111 239" fill="none" stroke="rgb(240, 240, 240)" stroke-width="2" stroke-miterlimit="10" pointer-events="stroke"/><rect x="111" y="211" width="40" height="40" fill="none" stroke="rgb(240, 240, 240)" stroke-width="2" pointer-events="all"/><g fill="rgb(240, 240, 240)" font-family="Verdana" text-anchor="middle" font-size="18px"><text x="130.5" y="238.5">U</text></g><rect x="111" y="251" width="40" height="40" fill="none" stroke="rgb(240, 240, 240)" stroke-width="2" pointer-events="all"/><g fill="rgb(240, 240, 240)" font-family="Verdana" text-anchor="middle" font-size="18px"><text x="130.5" y="278.5">U</text></g><rect x="111" y="291" width="40" height="40" fill="none" stroke="rgb(240, 240, 240)" stroke-width="2" pointer-events="all"/><g fill="rgb(240, 240, 240)" font-family="Verdana" text-anchor="middle" font-size="18px"><text x="130.5" y="318.5">U</text></g><path d="M 51 271 L 111 271" fill="none" stroke="rgb(240, 240, 240)" stroke-width="2" stroke-miterlimit="10" pointer-events="stroke"/><path d="M 51 279 L 111 303" fill="none" stroke="rgb(240, 240, 240)" stroke-width="2" stroke-miterlimit="10" pointer-events="stroke"/><rect x="11" y="251" width="40" height="40" fill="none" stroke="rgb(240, 240, 240)" stroke-width="2" pointer-events="all"/><g fill="rgb(240, 240, 240)" font-family="Verdana" text-anchor="middle" font-size="18px"><text x="30.5" y="278.5">U</text></g><rect x="10" y="1" width="490" height="40" fill="none" stroke="none" pointer-events="all"/><g fill="rgb(240, 240, 240)" font-family="Verdana" font-size="24px"><text x="11.5" y="31.5">Movement Cascade</text></g><rect x="1" y="176" width="60" height="30" fill="none" stroke="none" pointer-events="all"/><g fill="rgb(240, 240, 240)" font-family="Verdana" text-anchor="middle" font-size="18px"><text x="30.5" y="198.5">Root</text></g><path d="M 143 211 L 221 81" fill="none" stroke="rgb(240, 240, 240)" stroke-width="2" stroke-miterlimit="10" pointer-events="stroke"/><rect x="221" y="51" width="40" height="40" fill="none" stroke="rgb(240, 240, 240)" stroke-width="2" pointer-events="all"/><g fill="rgb(240, 240, 240)" font-family="Verdana" text-anchor="middle" font-size="18px"><text x="240.5" y="78.5">D</text></g><rect x="221" y="91" width="40" height="40" fill="none" stroke="rgb(240, 240, 240)" stroke-width="2" pointer-events="all"/><g fill="rgb(240, 240, 240)" font-family="Verdana" text-anchor="middle" font-size="18px"><text x="240.5" y="118.5">D</text></g><rect x="221" y="131" width="40" height="40" fill="none" stroke="rgb(240, 240, 240)" stroke-width="2" pointer-events="all"/><g fill="rgb(240, 240, 240)" font-family="Verdana" text-anchor="middle" font-size="18px"><text x="240.5" y="158.5">D</text></g><path d="M 147.36 211 L 221 121" fill="none" stroke="rgb(240, 240, 240)" stroke-width="2" stroke-miterlimit="10" pointer-events="stroke"/><path d="M 151 213.22 L 221 151" fill="none" stroke="rgb(240, 240, 240)" stroke-width="2" stroke-miterlimit="10" pointer-events="stroke"/><path d="M 151 263.73 L 221 238.27" fill="none" stroke="rgb(240, 240, 240)" stroke-width="2" stroke-miterlimit="10" pointer-events="stroke"/><rect x="221" y="211" width="40" height="40" fill="none" stroke="rgb(240, 240, 240)" stroke-width="2" pointer-events="all"/><g fill="rgb(240, 240, 240)" font-family="Verdana" text-anchor="middle" font-size="18px"><text x="240.5" y="238.5">U</text></g><rect x="221" y="251" width="40" height="40" fill="none" stroke="rgb(240, 240, 240)" stroke-width="2" pointer-events="all"/><g fill="rgb(240, 240, 240)" font-family="Verdana" text-anchor="middle" font-size="18px"><text x="240.5" y="278.5">T</text></g><rect x="221" y="291" width="40" height="40" fill="none" stroke="rgb(240, 240, 240)" stroke-width="2" pointer-events="all"/><g fill="rgb(240, 240, 240)" font-family="Verdana" text-anchor="middle" font-size="18px"><text x="240.5" y="318.5">U</text></g><path d="M 151 271 L 221 271" fill="none" stroke="rgb(240, 240, 240)" stroke-width="2" stroke-miterlimit="10" pointer-events="stroke"/><path d="M 151 278.27 L 221 303.73" fill="none" stroke="rgb(240, 240, 240)" stroke-width="2" stroke-miterlimit="10" pointer-events="stroke"/><path d="M 254.87 211 L 345 81" fill="none" stroke="rgb(240, 240, 240)" stroke-width="2" stroke-miterlimit="10" pointer-events="stroke"/><path d="M 259.91 211 L 345 121" fill="none" stroke="rgb(240, 240, 240)" stroke-width="2" stroke-miterlimit="10" pointer-events="stroke"/><path d="M 261 215.62 L 345 151" fill="none" stroke="rgb(240, 240, 240)" stroke-width="2" stroke-miterlimit="10" pointer-events="stroke"/><path d="M 261 264.55 L 345 237.45" fill="none" stroke="rgb(240, 240, 240)" stroke-width="2" stroke-miterlimit="10" pointer-events="stroke"/><rect x="345" y="211" width="40" height="40" fill="none" stroke="rgb(240, 240, 240)" stroke-width="2" pointer-events="all"/><g fill="rgb(240, 240, 240)" font-family="Verdana" text-anchor="middle" font-size="18px"><text x="364.5" y="238.5">D</text></g><rect x="345" y="251" width="40" height="40" fill="none" stroke="rgb(240, 240, 240)" stroke-width="2" pointer-events="all"/><g fill="rgb(240, 240, 240)" font-family="Verdana" text-anchor="middle" font-size="18px"><text x="364.5" y="278.5">D</text></g><rect x="345" y="291" width="40" height="40" fill="none" stroke="rgb(240, 240, 240)" stroke-width="2" pointer-events="all"/><g fill="rgb(240, 240, 240)" font-family="Verdana" text-anchor="middle" font-size="18px"><text x="364.5" y="318.5">D</text></g><path d="M 261 271 L 345 271" fill="none" stroke="rgb(240, 240, 240)" stroke-width="2" stroke-miterlimit="10" pointer-events="stroke"/><path d="M 261 277.45 L 345 304.55" fill="none" stroke="rgb(240, 240, 240)" stroke-width="2" stroke-miterlimit="10" pointer-events="stroke"/><rect x="275" y="206" width="60" height="30" fill="none" stroke="none" pointer-events="all"/><g fill="rgb(240, 240, 240)" font-family="Verdana" text-anchor="middle" font-size="18px"><text x="304.5" y="228.5">Target</text></g><path d="M 285.8 236 L 267.49 250.3" fill="none" stroke="rgb(240, 240, 240)" stroke-width="2" stroke-miterlimit="10" stroke-dasharray="2 2" pointer-events="stroke"/><path d="M 262.76 254 L 265.64 247.94 L 269.34 252.67 Z" fill="rgb(240, 240, 240)" stroke="rgb(240, 240, 240)" stroke-width="2" stroke-miterlimit="10" pointer-events="all"/><rect x="345" y="51" width="40" height="40" fill="none" stroke="rgb(240, 240, 240)" stroke-width="2" pointer-events="all"/><g fill="rgb(240, 240, 240)" font-family="Verdana" text-anchor="middle" font-size="18px"><text x="364.5" y="78.5">D</text></g><rect x="345" y="91" width="40" height="40" fill="none" stroke="rgb(240, 240, 240)" stroke-width="2" pointer-events="all"/><g fill="rgb(240, 240, 240)" font-family="Verdana" text-anchor="middle" font-size="18px"><text x="364.5" y="118.5">D</text></g><rect x="345" y="131" width="40" height="40" fill="none" stroke="rgb(240, 240, 240)" stroke-width="2" pointer-events="all"/><g fill="rgb(240, 240, 240)" font-family="Verdana" text-anchor="middle" font-size="18px"><text x="364.5" y="158.5">D</text></g><path d="M 31 206 L 31 242.76" fill="none" stroke="rgb(240, 240, 240)" stroke-width="2" stroke-miterlimit="10" stroke-dasharray="2 2" pointer-events="stroke"/><path d="M 31 248.76 L 28 242.76 L 34 242.76 Z" fill="rgb(240, 240, 240)" stroke="rgb(240, 240, 240)" stroke-width="2" stroke-miterlimit="10" pointer-events="all"/></g></svg>